<svg xmlns="http://www.w3.org/2000/svg" viewBox="0 0 792 90.26"><defs><style>.cls-1{fill:#99c;}</style></defs><title>logo_le_chainon_02</title><g id="L"><polygon points="0 0.26 18 0.26 18 72.26 72 72.26 72 90.26 0 90.26 0 0.26"/></g><g id="E"><polygon points="81 0.26 81 90.26 153 90.26 153 72.26 99 72.26 99 54.26 144 54.26 144 36.26 99 36.26 99 18.26 153 18.26 153 0.26 81 0.26"/></g><g id="C"><path id="C-2" data-name="C" d="M349.12,77.55,360,66.67S349.51,54,329,54a36.58,36.58,0,0,0-27.45,10.84c-8.46,7-13.54,22.93-13.54,35.21a46.85,46.85,0,0,0,15.73,35.24c6.16,5.77,16,8.67,25.26,8.67,20.59,0,31-12.63,31-12.63l-10.87-10.69s-6.36,6.88-20.14,6.88-25.12-12.34-25.26-27.48C303.63,84.66,314.85,72,329,71.52,343.25,71.53,349.12,77.55,349.12,77.55Z" transform="translate(-72 -53.74)"/></g><g id="H"><polygon points="297 0.26 315 0.26 315 36.26 351 36.26 351 0.26 369 0.26 369 90.26 351 90.26 351 54.26 315 54.26 315 90.26 297 90.26 297 0.26"/></g><g id="A"><polygon class="cls-1" points="450 90.26 450 36.26 414 0.26 378 36.26 378 90.26 396 90.26 396 45.26 414 27.26 432 45.26 432 90.26 450 90.26"/></g><g id="Nuage"><path class="cls-1" d="M587.57,60.17a15.33,15.33,0,0,0-9.33,3.16,16.69,16.69,0,0,0-30.5.64A11.55,11.55,0,0,0,531,74.31a11.92,11.92,0,0,0,.12,1.6v.14a16.23,16.23,0,0,0,16.18,15h40.26a15.43,15.43,0,0,0,0-30.86Z" transform="translate(-72 -53.74)"/></g><g id="I"><rect x="486" y="45.26" width="18" height="45"/></g><g id="N"><polygon points="540 90.26 540 0.26 558 0.26 594 54.26 594 0.26 612 0.26 612 90.26 594 90.26 558 36.26 558 90.26 540 90.26"/></g><g id="O"><path d="M738,54a45,45,0,1,0,45,45A45,45,0,0,0,738,54Zm0,72c-12.43,0-22.5-12.09-22.5-27S725.57,72,738,72s22.5,12.09,22.5,27S750.43,126,738,126Z" transform="translate(-72 -53.74)"/></g><g id="N-2" data-name="N"><polygon points="720 90.26 720 0.26 738 0.26 774 54.26 774 0.26 792 0.26 792 90.26 774 90.26 738 36.26 738 90.26 720 90.26"/></g></svg>