<svg id="Composant_3_1" data-name="Composant 3 – 1" xmlns="http://www.w3.org/2000/svg" width="268.884" height="30.187" viewBox="0 0 268.884 30.187">
  <path id="L" d="M2045.153,48.161h5.29V72.737h17.009v5.424h-22.3Z" transform="translate(-2045.153 -47.974)"/>
  <path id="E" d="M2059.175,48.161h24.363v5.1h-17.182V60.3h15.369v5.612h-15.369v6.879h17.182v5.369h-24.363Z" transform="translate(-2033.175 -47.974)"/>
  <path id="C" d="M2103.172,55.578l3.953-3.629s-3.813-4.212-11.274-4.212a13.97,13.97,0,0,0-9.979,3.614c-3.075,2.328-4.923,7.647-4.923,11.742a15.09,15.09,0,0,0,5.72,11.751c2.238,1.924,5.807,2.892,9.183,2.892,7.485,0,11.274-4.212,11.274-4.212l-3.953-3.564s-2.312,2.295-7.322,2.295a9.259,9.259,0,0,1-9.183-9.163,9.459,9.459,0,0,1,9.183-9.525C2101.035,53.569,2103.172,55.578,2103.172,55.578Z" transform="translate(-2017.948 -47.551)"/>
  <path id="H" d="M2098.07,48.161h7.317V59.4h13.57V48.161h7.184v30h-7.184V66.586h-13.57V78.161h-7.317Z" transform="translate(-2005.153 -47.974)"/>
  <path id="A" d="M2116.072,77.305V61.146l13.768-13.841L2143,60.533V77.305h-7.649V63.04L2129.84,57.5l-5.507,5.537V77.305Z" transform="translate(-1991.226 -47.279)" fill="#99c"/>
  <path id="I" d="M2133.97,54.014v15h6.044v-15Z" transform="translate(-1974.153 -38.974)"/>
  <path id="nuage" d="M-1988.571,10a10.027,10.027,0,0,1-.984-1.845A3.556,3.556,0,0,1-1990,6.428a3.572,3.572,0,0,1,3.572-3.572,3.566,3.566,0,0,1,1.115.178,5,5,0,0,1,4.6-3.034,4.994,4.994,0,0,1,4.089,2.122,4.264,4.264,0,0,1,2.339-.694A4.284,4.284,0,0,1-1970,5.714a4.288,4.288,0,0,1-2.857,4.043V10Z" transform="translate(2142.847 0.026)" fill="#99c"/>
  <path id="N" d="M2142.968,77.974v-30h5.681l15.037,19.3v-19.3h7.352v30h-7.352l-15.037-19.14v19.14Z" transform="translate(-1968.153 -47.974)"/>
  <path id="O" d="M-1975,30a15.017,15.017,0,0,1-15-15,15.017,15.017,0,0,1,15-15,15.017,15.017,0,0,1,15,15A15.017,15.017,0,0,1-1975,30Zm0-23.334A8.343,8.343,0,0,0-1983.334,15,8.343,8.343,0,0,0-1975,23.334,8.343,8.343,0,0,0-1966.667,15,8.343,8.343,0,0,0-1975,6.666Z" transform="translate(2196.847 0.026)"/>
  <path id="N-2" data-name="N" d="M2142.968,77.974v-30h5.681l15.037,19.3v-19.3h7.352v30h-7.352l-15.037-19.14v19.14Z" transform="translate(-1902.153 -47.974)"/>
</svg>
